<svg xmlns="http://www.w3.org/2000/svg" xmlns:xlink="http://www.w3.org/1999/xlink" width="1080" zoomAndPan="magnify" viewBox="0 0 810 1439.999935" height="1920" preserveAspectRatio="xMidYMid meet" version="1.0"><defs><clipPath id="ed793ce5f8"><path d="M 5 25.152344 L 809 25.152344 L 809 1435 L 5 1435 Z M 5 25.152344 " clip-rule="nonzero"/></clipPath></defs><g clip-path="url(#ed793ce5f8)"><path fill="#393536" d="M 73.441406 1379.078125 C 84.433594 1361.558594 118.726562 1378.367188 129.246094 1388.1875 C 138.640625 1429.839844 51.503906 1413.996094 73.441406 1379.078125 Z M 393.8125 1370.015625 C 414.058594 1377.039062 440.917969 1377.386719 445.710938 1399.828125 C 437.945312 1418.550781 415.183594 1428.007812 392.515625 1418.027344 C 383.738281 1405.789062 389.367188 1383.570312 393.8125 1370.015625 Z M 484.625 1060.097656 C 488.453125 1085.273438 497.910156 1113.988281 496.296875 1136.570312 C 471.414062 1150.566406 425.640625 1154.980469 405.488281 1134.011719 C 402.386719 1111.601562 397.625 1091.945312 399.019531 1069.15625 C 431.476562 1078.882812 459.820312 1069.15625 484.625 1060.097656 Z M 89.003906 1021.179688 C 90.683594 1021.097656 90.808594 1019.535156 92.898438 1019.882812 C 115.738281 1036.5 154.222656 1044.078125 186.285156 1047.144531 C 178.074219 1073.046875 174.847656 1103.964844 166.84375 1130.121094 C 127.539062 1138.183594 100.535156 1115.269531 77.347656 1098.949219 C 84.8125 1076.621094 81.207031 1043.191406 89.003906 1021.179688 Z M 474.261719 1003.023438 C 476.523438 1014.550781 479.324219 1025.621094 480.714844 1038.050781 C 462.082031 1056.980469 424.722656 1058.988281 395.125 1053.597656 C 381.238281 1002.597656 437.660156 995.511719 474.261719 1003.023438 Z M 195.394531 997.851562 C 194.445312 1009.113281 196.582031 1020.863281 191.472656 1030.253906 C 149.160156 1026.378906 70.800781 1019.4375 99.398438 970.621094 C 131.335938 979.714844 166.796875 985.328125 195.394531 997.851562 Z M 43.625 894.082031 C 33.800781 895.015625 19.929688 882.15625 18.980469 874.644531 C 17.035156 858.863281 44.480469 842.195312 51.40625 833.132812 C 65.214844 845.421875 64.945312 892.136719 43.625 894.082031 Z M 794.652344 127.691406 C 789.429688 148.421875 780.066406 164.980469 762.222656 173.0625 C 761.925781 160.835938 757.273438 133.875 767.429688 125.082031 C 775.84375 122.929688 789.066406 123.089844 794.652344 127.691406 Z M 388.625 84.929688 C 400.363281 97.359375 385.730469 106.847656 384.75 121.207031 C 400.378906 137.699219 406.800781 107.003906 411.988281 96.554688 C 428.769531 96.632812 440.175781 102.101562 448.304688 110.832031 C 445.285156 119.847656 428.914062 136.214844 444.429688 139.359375 C 452.84375 141.101562 457.703125 128.925781 462.574219 122.535156 C 469.359375 125.714844 474.40625 130.535156 476.839844 138.0625 C 473.078125 141.652344 468.933594 144.878906 467.761719 151.046875 C 471.445312 163.714844 486 154.382812 491.109375 149.734375 C 494.191406 157.894531 501.421875 161.894531 504.09375 170.46875 C 497.785156 174.042969 485.066406 185.742188 497.59375 192.511719 C 504.03125 192.039062 506.515625 187.609375 513.175781 187.355469 C 542.769531 233.296875 529.878906 301.738281 498.921875 346.839844 C 491.363281 357.832031 476.273438 371.605469 465.183594 381.835938 C 442.515625 402.742188 411.070312 421.324219 370.5 420.753906 C 367.398438 422.875 363.03125 423.664062 360.089844 425.957031 C 335.589844 428.011719 315.722656 429.722656 292.644531 428.566406 C 218 424.867188 156.769531 391.957031 135.699219 331.277344 C 120.910156 288.644531 107.496094 225.453125 136.996094 183.464844 C 141.285156 177.378906 147.878906 172.886719 152.5625 166.59375 C 156.753906 160.964844 159.851562 151.191406 169.453125 151.046875 C 172.332031 161.089844 173.21875 173.203125 186.285156 173.0625 C 192.582031 162.277344 179.816406 152.105469 179.816406 139.359375 C 194.730469 130.09375 204.824219 115.972656 225.195312 112.144531 C 229.136719 122.535156 232.457031 144.296875 247.261719 135.503906 C 247.023438 122.328125 240.035156 115.910156 238.183594 104.347656 C 247.308594 94.890625 265.214844 94.210938 281 91.398438 C 283.960938 104.394531 279.308594 125.066406 297.863281 122.535156 C 302.59375 113.648438 294.730469 101.34375 295.269531 88.789062 C 306.988281 85.136719 325.308594 84.234375 339.351562 86.179688 C 338.105469 95.761719 333.484375 101.914062 334.164062 113.425781 C 351.5 127.960938 353.511719 98.75 354.949219 84.929688 C 368.316406 84.472656 375.71875 83.757812 388.625 84.929688 Z M 347.136719 25.246094 C 339.257812 32.492188 345.933594 54.28125 341.964844 65.460938 C 325.6875 63.375 311.515625 72.5625 295.269531 68.007812 C 289.242188 56.78125 290.382812 38.324219 282.28125 29.121094 C 264.992188 31.128906 278.328125 57.238281 277.09375 70.632812 C 266.054688 79.03125 244.828125 77.257812 233.011719 84.929688 C 226.257812 76.421875 227.015625 55.308594 210.945312 60.226562 C 207.890625 70.445312 215.785156 80.3125 217.429688 90.070312 C 206.390625 102.417969 191.03125 110.328125 174.628906 117.300781 C 164.457031 108.066406 160.4375 92.597656 148.6875 84.929688 C 139.164062 99.792969 159.933594 111.78125 159.0625 130.285156 C 120.355469 163.824219 82.265625 238.308594 113.679688 304.046875 C 113.679688 307.9375 113.679688 311.828125 113.679688 315.703125 C 137.40625 390.121094 191.078125 434.542969 282.28125 441.535156 C 283.121094 455.75 280.433594 466.441406 278.390625 477.8125 C 264.773438 476.75 255.1875 471.613281 244.667969 467.4375 C 206.65625 470.441406 172.917969 471.28125 152.5625 493.386719 C 138.183594 509.027344 132 529.347656 117.574219 545.257812 C 110.660156 568.171875 106.59375 593.964844 99.398438 616.59375 C 104.285156 626.398438 106.359375 639.019531 113.679688 646.417969 C 107.765625 658.660156 107.355469 676.386719 98.085938 685.304688 C 90.128906 712.0625 84.339844 738.675781 73.441406 764.421875 C 65.152344 784.0625 61.324219 803.703125 50.09375 816.292969 C 35.097656 833.101562 15.058594 840.976562 5.996094 861.679688 C 1.25 894.570312 34.023438 920.109375 57.890625 904.488281 C 79.59375 890.207031 79.703125 848.046875 64.363281 826.652344 C 85.414062 769.453125 104.792969 710.625 126.621094 654.183594 C 129.261719 649.898438 139.574219 653.296875 140.902344 647.652344 C 138.640625 638.304688 125.988281 639.269531 120.136719 633.453125 C 112.351562 610.378906 120.199219 578.78125 131.808594 550.460938 C 135.605469 541.257812 143.988281 532.273438 149.984375 523.230469 C 160.820312 506.765625 167.492188 492.929688 186.285156 488.167969 C 195.757812 485.78125 206.863281 488.5 218.742188 486.871094 C 231.097656 485.195312 239.765625 480.878906 249.871094 483.015625 C 259.1875 484.992188 269.820312 490.589844 277.09375 497.277344 C 279.863281 514.816406 283.011719 532.003906 295.269531 540.070312 C 304.617188 539.863281 306.59375 539.613281 316.007812 538.789062 C 324.660156 531.007812 329.46875 519.386719 334.164062 507.652344 C 350.996094 507.859375 369.582031 499.414062 389.9375 501.183594 C 403.242188 502.308594 421.050781 511.921875 428.851562 497.277344 C 432.628906 498.242188 431.363281 504.285156 436.664062 503.730469 C 465.007812 478.09375 489.019531 448.066406 519.660156 424.628906 C 557.449219 440.507812 586.695312 464.828125 609.15625 495.964844 C 578.011719 540.464844 543.734375 581.867188 488.546875 602.328125 C 481.933594 603.246094 485.414062 594.1875 479.449219 594.550781 C 468.789062 598.582031 463.460938 607.929688 456.070312 615.28125 C 455.597656 648.679688 467.601562 684.183594 469.058594 720.316406 C 470.164062 747.691406 459.347656 784.332031 459.996094 817.589844 C 460.816406 860.175781 449.648438 896.074219 426.238281 918.75 C 359.503906 926.738281 288.5625 918.246094 233.011719 904.488281 C 186.109375 892.878906 147.640625 879.992188 113.679688 856.507812 C 104.792969 817.511719 123.664062 776 136.996094 743.660156 C 147.105469 694.683594 168.109375 644.078125 177.222656 594.550781 C 178.753906 586.058594 180.589844 572.648438 173.332031 566.019531 C 163.445312 572.617188 162.96875 586.847656 160.34375 597.128906 C 156.640625 611.707031 154.347656 623.726562 151.296875 641.214844 C 148.953125 654.40625 142.390625 666.328125 138.308594 680.101562 C 135.128906 690.917969 135.113281 702.890625 131.808594 713.816406 C 124.976562 736.589844 111.371094 762.539062 103.273438 790.375 C 101.753906 795.578125 102.292969 801.492188 100.710938 807.230469 C 96.660156 821.398438 90.699219 834.921875 91.601562 847.414062 C 92.042969 853.1875 96.125 858.277344 96.804688 864.257812 C 98.511719 879.261719 91.804688 899.125 90.320312 918.75 C 87.691406 953.082031 87.203125 984.933594 82.519531 1013.414062 C 80.859375 1023.472656 75.84375 1034.003906 73.441406 1045.800781 C 70.578125 1060.097656 71.71875 1076.273438 68.253906 1091.203125 C 65.832031 1101.71875 61.546875 1117.5 57.890625 1132.699219 C 53.019531 1152.84375 40.699219 1167.234375 54 1180.675781 C 72.601562 1199.511719 111.941406 1207.609375 138.308594 1213.097656 C 138.640625 1264.015625 134.039062 1319.539062 130.542969 1370.015625 C 115.847656 1370.253906 110.265625 1358.15625 94.210938 1357.035156 C 65.359375 1355.042969 45.492188 1387.414062 63.066406 1410.199219 C 70.847656 1420.289062 100.933594 1430.917969 118.839844 1427.074219 C 130.542969 1424.558594 136.679688 1413.679688 143.496094 1407.605469 C 145.570312 1338.753906 147.023438 1281.222656 153.890625 1215.707031 C 181.414062 1222 208.175781 1225.824219 239.464844 1223.484375 C 265.011719 1194.199219 274.375 1144.433594 287.472656 1106.730469 C 304.539062 1138.800781 301.089844 1197.457031 309.519531 1233.84375 C 330.179688 1243.269531 363.664062 1245.957031 388.625 1246.8125 C 381.332031 1289.003906 384.277344 1352.78125 376.953125 1395.9375 C 375.640625 1403.652344 372.015625 1408.113281 373.078125 1414.121094 C 374.46875 1421.808594 384.148438 1427.359375 387.359375 1432.277344 C 415.753906 1439.804688 457.449219 1429.714844 459.996094 1402.453125 C 462.382812 1376.546875 423.171875 1354.835938 392.515625 1367.410156 C 391.472656 1321.894531 399.050781 1285.207031 399.019531 1244.21875 C 426.351562 1241.214844 456.957031 1242.875 474.261719 1227.390625 C 468.996094 1219.5 457.984375 1225.003906 450.914062 1226.078125 C 436.472656 1228.308594 418.949219 1228.863281 399.019531 1229.96875 C 375.210938 1231.3125 346.265625 1232.65625 322.492188 1223.484375 C 311.023438 1195.179688 313.839844 1152.558594 306.941406 1119.746094 C 296.566406 1108.898438 301.914062 1082.410156 284.894531 1078.265625 C 265.277344 1117.878906 258.714844 1170.523438 236.886719 1207.910156 C 224.421875 1206.234375 204.460938 1212.195312 188.894531 1209.222656 C 184.671875 1208.367188 180.417969 1205.140625 175.925781 1204.003906 C 133.582031 1193.472656 80.273438 1197.457031 61.769531 1165.117188 C 63.980469 1146.597656 69.960938 1131.8125 73.441406 1114.542969 C 98.226562 1131.71875 131.886719 1152.703125 175.925781 1148.273438 C 192.359375 1116.472656 186.980469 1070.515625 205.757812 1040.613281 C 204.113281 1016.242188 216.386719 995.195312 201.882812 982.308594 C 192.816406 974.242188 167.890625 971.949219 151.296875 968.011719 C 132.457031 963.550781 115.246094 955.691406 99.398438 956.339844 C 100.804688 927.921875 101.566406 898.871094 109.773438 877.238281 C 193.734375 916.519531 309.820312 950.535156 427.554688 931.671875 C 431.097656 928.335938 434.65625 924.964844 440.539062 923.921875 C 446.488281 917.753906 450.964844 910.132812 456.070312 903.175781 C 468.757812 921.660156 470.417969 961.953125 470.386719 984.867188 C 445.855469 990.894531 416.464844 987.019531 399.019531 999.164062 C 376.035156 1015.089844 381.902344 1043.414062 384.75 1083.4375 C 385.492188 1093.667969 388.625 1103.585938 389.9375 1113.261719 C 392.28125 1130.308594 390.476562 1143.085938 400.347656 1150.867188 C 412.84375 1160.785156 435.539062 1165.304688 449.601562 1165.117188 C 465.957031 1164.925781 482.519531 1159.785156 498.921875 1153.492188 C 506.703125 1171.394531 497.339844 1196.949219 502.796875 1213.097656 C 519.566406 1203.511719 519.058594 1166.492188 517.050781 1144.382812 C 515.769531 1129.835938 507.464844 1113.230469 504.09375 1096.421875 C 500.867188 1080.386719 502.039062 1064.207031 497.59375 1051.003906 C 498.984375 1045.453125 502.78125 1042.335938 502.796875 1035.457031 C 501.011719 1030.316406 494.875 1029.511719 492.421875 1025.066406 C 480.226562 977.339844 484.101562 920.425781 463.886719 879.832031 C 478.597656 849.816406 468.171875 807.625 476.839844 768.3125 C 479.832031 754.855469 485.429688 731.816406 484.625 712.554688 C 483.308594 680.386719 469.832031 650.640625 475.558594 616.59375 C 508.792969 616.972656 539.304688 593 561.179688 575.066406 C 581.996094 558.003906 597.054688 534.503906 613.046875 518.011719 C 616.765625 516.332031 622.207031 519.195312 624.738281 514.121094 C 623.820312 484.722656 599.03125 468.054688 584.496094 447.984375 C 597.703125 416.390625 627.933594 398.457031 645.488281 368.882812 C 650.996094 359.648438 653.476562 348.40625 658.445312 339.105469 C 665.339844 326.09375 672.632812 312.351562 680.476562 300.15625 C 704.046875 263.675781 724.5625 225.039062 750.550781 191.246094 C 786.15625 184.035156 805.785156 160.851562 808.917969 121.207031 C 790.332031 96.679688 746.375 105.441406 744.066406 140.640625 C 743.101562 155.460938 748.414062 163.953125 742.753906 174.390625 C 739.195312 181.03125 735.113281 182.550781 729.796875 191.246094 C 721.210938 205.226562 711.117188 220.058594 702.558594 235.320312 C 688.8125 259.753906 673.789062 286.683594 659.726562 311.828125 C 651.027344 327.484375 644.335938 343.234375 636.394531 357.199219 C 617.730469 390.136719 590.097656 413.371094 571.542969 437.613281 C 555.058594 429.894531 543.78125 416.976562 527.425781 409.097656 C 522.332031 412.421875 514.3125 414.445312 509.265625 414.269531 C 482.1875 440.347656 452.5625 463.863281 430.164062 494.683594 C 408.476562 481.070312 365.957031 481.574219 340.648438 492.089844 C 336.078125 491.917969 334.84375 488.375 330.257812 488.167969 C 318.742188 498.257812 319.597656 520.777344 301.738281 524.507812 C 291.316406 518.957031 292.582031 501.660156 291.378906 486.871094 C 300 477.082031 293.496094 458.171875 297.863281 442.800781 C 305.140625 440.804688 310.535156 445.25 322.492188 442.800781 C 328.503906 456.382812 311.925781 482.082031 330.257812 485.625 C 337.628906 477.605469 340.175781 454.691406 335.460938 442.800781 C 364.582031 437.328125 397.941406 434.542969 424.972656 424.628906 C 458.554688 412.371094 478.074219 386.28125 502.796875 366.339844 C 508.730469 348.878906 526.191406 332.308594 533.925781 310.546875 C 539.433594 295.035156 546.597656 274.539062 546.898438 257.394531 C 547.417969 227.316406 535.667969 198.964844 524.832031 174.390625 C 530.273438 159.050781 547.371094 155.394531 553.382812 140.640625 C 537.027344 129.304688 528.011719 151.347656 517.050781 157.515625 C 509.582031 152.882812 504.886719 145.480469 501.46875 136.75 C 505.566406 123.089844 518.980469 118.820312 520.957031 103.035156 C 517.601562 102.925781 519.105469 97.992188 515.769531 97.847656 C 498.96875 98.355469 501.453125 118.121094 488.546875 122.535156 C 480.589844 118.976562 473.550781 114.265625 472.964844 106.941406 C 472.128906 96.617188 492.183594 82.320312 476.839844 73.195312 C 465.074219 75.726562 464.488281 89.355469 458.699219 97.847656 C 443.84375 94.117188 441.710938 77.671875 423.675781 77.117188 C 425.75 65.144531 428.21875 52.050781 418.472656 51.183594 C 407.6875 50.171875 410.105469 66.617188 402.894531 73.195312 C 389.367188 68.085938 376.699219 69.417969 360.089844 66.757812 C 356.039062 52.683594 364.644531 25.878906 347.136719 25.246094 " fill-opacity="1" fill-rule="evenodd"/></g><path fill="#393536" d="M 388.625 227.554688 C 384.71875 234.417969 380.828125 241.328125 382.15625 253.457031 C 401.3125 287.523438 430.019531 223.253906 388.625 227.554688 " fill-opacity="1" fill-rule="evenodd"/><path fill="#393536" d="M 275.828125 231.414062 C 269.851562 231.367188 262.90625 235.429688 261.53125 244.398438 C 259.867188 255.007812 266.273438 263.707031 270.609375 265.160156 C 293.261719 272.671875 301.453125 231.746094 275.828125 231.414062 " fill-opacity="1" fill-rule="evenodd"/><path fill="#393536" d="M 196.691406 287.207031 C 195.394531 287.207031 194.066406 287.207031 192.785156 287.207031 C 189.921875 320.683594 208.320312 346.035156 227.789062 366.339844 C 239.273438 378.246094 255.457031 391.007812 275.828125 393.539062 C 291.171875 395.4375 311.164062 392.449219 328.992188 393.539062 C 340.460938 394.1875 350.265625 397.097656 360.089844 396.148438 C 380.148438 394.171875 404.808594 383.8125 419.800781 375.398438 C 436.140625 366.179688 468.835938 337.113281 454.824219 310.546875 C 439.859375 317.21875 436.773438 335.722656 426.238281 346.839844 C 406.371094 358.953125 382.15625 377.851562 351.027344 379.304688 C 316.339844 380.839844 271.335938 381.347656 248.542969 365.011719 C 232.632812 353.5625 215.691406 330.613281 208.382812 309.265625 C 205.867188 302.007812 207.558594 291.792969 200.566406 288.519531 C 200.441406 287.472656 196.28125 284.550781 196.691406 287.207031 " fill-opacity="1" fill-rule="evenodd"/></svg>