<svg xmlns="http://www.w3.org/2000/svg" xmlns:xlink="http://www.w3.org/1999/xlink" width="1080" zoomAndPan="magnify" viewBox="0 0 810 1439.999935" height="1920" preserveAspectRatio="xMidYMid meet" version="1.0"><path fill="#231f20" d="M 329.496094 1049.957031 C 327.28125 1121.53125 324.566406 1192.601562 320.777344 1264.222656 C 318.28125 1311.003906 319.078125 1357.960938 319.832031 1404.773438 C 320.214844 1429.34375 247.539062 1415.847656 233.0625 1414.84375 C 223.871094 1414.195312 223.960938 1428.457031 233.0625 1429.09375 C 264.769531 1431.289062 297.863281 1436.273438 329.15625 1428.722656 C 332.179688 1427.984375 334.453125 1424.933594 334.394531 1421.851562 C 332.09375 1297.789062 339.898438 1173.84375 343.746094 1049.957031 C 344.042969 1040.769531 329.789062 1040.800781 329.496094 1049.957031 " fill-opacity="1" fill-rule="nonzero"/><path fill="#231f20" d="M 391.433594 1055.710938 C 410.757812 1177.574219 387.316406 1303.804688 372.488281 1424.949219 C 372.117188 1427.941406 374.921875 1431.1875 377.726562 1431.820312 C 414.90625 1440.300781 451.421875 1434.578125 489.085938 1432.910156 C 498.234375 1432.5 498.28125 1418.25 489.085938 1418.664062 C 462.871094 1419.828125 385.015625 1438.457031 390.222656 1396.75 C 395.269531 1356.207031 400.417969 1315.691406 404.679688 1275.0625 C 412.425781 1201.023438 416.882812 1125.75 405.167969 1051.917969 C 403.738281 1042.878906 390 1046.726562 391.433594 1055.710938 " fill-opacity="1" fill-rule="nonzero"/><path fill="#231f20" d="M 730.625 749.167969 C 634.308594 689.023438 529.765625 644.617188 442.316406 571.671875 C 435.308594 565.832031 425.175781 575.859375 432.242188 581.742188 C 520.71875 655.574219 625.960938 700.601562 723.421875 761.464844 C 731.226562 766.347656 738.367188 754.019531 730.625 749.167969 " fill-opacity="1" fill-rule="nonzero"/><path fill="#231f20" d="M 653.019531 789.960938 C 664.6875 739.019531 687.675781 691.472656 698.710938 640.382812 C 700.644531 631.414062 686.894531 627.625 684.960938 636.59375 C 673.925781 687.679688 650.9375 735.230469 639.265625 786.167969 C 637.230469 795.105469 650.96875 798.910156 653.019531 789.960938 " fill-opacity="1" fill-rule="nonzero"/><path fill="#231f20" d="M 716.976562 793.070312 C 709.347656 783.367188 667.550781 734.652344 678.644531 721.777344 C 686.066406 713.164062 703.757812 708.460938 713.730469 704.285156 C 725.917969 699.199219 738.207031 694.347656 750.070312 688.476562 C 758.285156 684.390625 751.070312 672.105469 742.867188 676.175781 C 726.433594 684.332031 709.15625 690.6875 692.351562 698.046875 C 683.425781 701.957031 667.375 707.574219 664.378906 718.414062 C 656.617188 746.628906 691.273438 783.324219 706.914062 803.128906 C 712.59375 810.355469 722.597656 800.195312 716.976562 793.070312 " fill-opacity="1" fill-rule="nonzero"/><path fill="#231f20" d="M 98.820312 424.511719 C 93.714844 435.394531 91.945312 445.644531 91.78125 457.636719 C 91.574219 474.582031 100.234375 501.675781 82.414062 512.484375 C 61.003906 525.464844 32.410156 520.433594 10.207031 532.128906 C 2.078125 536.390625 9.292969 548.691406 17.40625 544.414062 C 41.085938 531.953125 73.191406 538.78125 94.851562 521.347656 C 120.742188 500.523438 98.613281 458.417969 111.125 431.710938 C 114.972656 423.433594 102.683594 416.207031 98.820312 424.511719 " fill-opacity="1" fill-rule="nonzero"/><path fill="#231f20" d="M 466.058594 29.09375 C 452.4375 27.296875 438.761719 26.367188 425.160156 26.367188 C 367.882812 26.367188 312.085938 42.8125 269.773438 79.460938 C 227.441406 116.09375 199.027344 172.890625 196.195312 252.105469 L 196.195312 252.164062 C 196.148438 254.242188 196.121094 256.324219 196.121094 258.371094 C 196.03125 331.257812 229.449219 383.144531 276.542969 416.046875 C 323.625 449.023438 384.144531 463.566406 439.542969 463.59375 C 466.882812 463.582031 492.984375 460.039062 515.71875 453.285156 L 515.792969 453.257812 L 515.851562 453.226562 C 555.953125 439.820312 594.933594 412.667969 624.027344 375.769531 C 653.105469 338.867188 672.273438 292.132812 672.273438 239.761719 C 672.273438 225.21875 670.796875 210.25 667.652344 194.953125 L 667.652344 194.96875 C 655.539062 134.308594 618.789062 91.863281 573.230469 64.976562 C 527.640625 38.046875 473.242188 26.335938 424.628906 26.324219 C 412.074219 26.324219 399.914062 27.105469 388.363281 28.625 L 389.617188 38.03125 C 400.710938 36.574219 412.472656 35.820312 424.628906 35.820312 C 471.722656 35.804688 524.644531 47.28125 568.390625 73.148438 C 612.148438 99.074219 646.734375 139.042969 658.34375 196.84375 L 658.34375 196.785156 L 658.34375 196.855469 C 661.367188 211.53125 662.769531 225.851562 662.769531 239.761719 C 662.769531 289.785156 644.488281 334.429688 616.5625 369.898438 C 588.648438 405.339844 551.039062 431.472656 512.855469 444.230469 L 514.359375 448.730469 L 513.003906 444.1875 C 491.332031 450.632812 466.058594 454.097656 439.542969 454.097656 C 385.796875 454.113281 326.957031 439.835938 282.003906 408.273438 C 237.046875 376.652344 205.710938 328.308594 205.621094 258.371094 C 205.621094 256.394531 205.636719 254.40625 205.710938 252.398438 L 200.945312 252.28125 L 205.710938 252.445312 C 208.527344 175.28125 235.824219 121.492188 275.984375 86.644531 C 316.1875 51.808594 369.65625 35.851562 425.160156 35.851562 C 438.335938 35.851562 451.582031 36.75 464.804688 38.503906 L 466.058594 29.09375 " fill-opacity="1" fill-rule="nonzero"/><path fill="#231f20" d="M 465.421875 26.675781 C 333.257812 11.484375 210.386719 83.105469 196.105469 223.402344 C 182.074219 361.257812 275.4375 448.757812 407.292969 464.316406 C 550.597656 481.21875 678.601562 373.363281 674.203125 226.117188 C 669.882812 81.023438 516.574219 11.882812 388.996094 26.203125 C 379.984375 27.222656 379.863281 41.484375 388.996094 40.453125 C 502.707031 27.679688 628.082031 77.542969 656.117188 197.800781 C 675.871094 282.5 632.4375 365.960938 564.9375 415.234375 C 521.589844 446.871094 469.039062 453.875 416.851562 450.898438 C 296.550781 444.039062 201.742188 362.613281 208.925781 237.5625 C 216.9375 97.882812 334.984375 25.9375 465.421875 40.921875 C 474.554688 41.96875 474.4375 27.710938 465.421875 26.675781 " fill-opacity="1" fill-rule="nonzero"/><path fill="#231f20" d="M 662.371094 206.664062 L 657.722656 205.722656 L 658.285156 205.839844 L 657.785156 205.542969 L 657.722656 205.722656 L 658.285156 205.839844 L 657.785156 205.542969 L 657.886719 205.601562 L 657.796875 205.527344 L 657.785156 205.542969 L 657.886719 205.601562 L 657.796875 205.527344 C 657.796875 205.574219 656.941406 206.296875 654.996094 206.769531 C 653.078125 207.269531 650.273438 207.59375 646.851562 207.59375 C 636.007812 207.609375 619.144531 204.511719 600.289062 197.964844 C 571.988281 188.140625 539.117188 170.574219 513.578125 144.691406 C 488.027344 118.78125 469.730469 84.816406 469.699219 41.320312 L 469.699219 16.484375 L 460.539062 39.566406 C 445.816406 76.628906 418.164062 126.890625 384.910156 167.539062 C 368.296875 187.859375 350.285156 205.78125 331.960938 218.492188 C 313.605469 231.234375 295.058594 238.683594 277.3125 238.652344 C 256.226562 238.609375 235.558594 228.507812 215.714844 202.152344 L 211.90625 205 L 216.65625 205.160156 L 216.6875 204.777344 C 216.894531 200.351562 219.800781 159.5 246.652344 119.25 C 273.578125 79.0625 323.917969 38.960938 421.484375 35.113281 C 426.234375 34.921875 430.914062 34.832031 435.488281 34.832031 C 525.824219 34.890625 580.988281 69.699219 614.140625 108.144531 C 630.695312 127.378906 641.6875 147.597656 648.488281 164.824219 C 655.320312 181.992188 657.929688 196.398438 657.902344 203.097656 C 657.902344 204.320312 657.796875 205.265625 657.722656 205.75 L 657.695312 205.808594 L 657.722656 205.722656 L 662.371094 206.664062 L 667.019531 207.59375 C 667.300781 206.207031 667.386719 204.761719 667.386719 203.097656 C 667.359375 194.394531 664.480469 179.484375 657.324219 161.328125 C 646.585938 134.191406 626.121094 100.210938 590.742188 72.957031 C 555.375 45.6875 505.082031 25.320312 435.488281 25.335938 C 430.796875 25.335938 425.984375 25.4375 421.101562 25.628906 C 317.808594 29.492188 263.546875 74.226562 236.089844 118.101562 C 208.558594 161.933594 207.199219 204.378906 207.171875 204.851562 L 207.113281 206.515625 L 208.117188 207.84375 C 229.007812 235.851562 252.921875 248.210938 277.3125 248.167969 C 297.757812 248.152344 318.03125 239.714844 337.375 226.308594 C 395.296875 185.945312 446.597656 100.152344 469.363281 43.0625 L 464.949219 41.320312 L 460.199219 41.320312 C 460.183594 103.085938 495.238281 147.332031 535.664062 175.605469 C 555.921875 189.792969 577.566406 200.117188 597.175781 206.929688 C 616.828125 213.742188 634.339844 217.0625 646.851562 217.078125 C 651.71875 217.0625 655.835938 216.605469 659.316406 215.367188 C 661.042969 214.746094 662.667969 213.921875 664.070312 212.652344 C 665.46875 211.414062 666.621094 209.628906 667.019531 207.609375 L 667.019531 207.59375 L 662.371094 206.664062 " fill-opacity="1" fill-rule="nonzero"/><path fill="#231f20" d="M 656.21875 203.082031 C 647.839844 221.707031 566.207031 180.457031 557.824219 175.722656 C 507.472656 147.363281 474.128906 99.59375 472.078125 41.320312 C 471.75 32.796875 461.039062 32.238281 458.058594 39.417969 C 429.601562 108.589844 354 254.65625 260.699219 233.933594 C 186.207031 217.386719 233.300781 136.476562 263.425781 101.449219 C 333.019531 20.570312 476.78125 20.054688 563.84375 69.035156 C 604.402344 91.847656 661.886719 154.265625 655.246094 206.664062 C 654.09375 215.765625 668.363281 215.648438 669.496094 206.664062 C 677.820312 140.992188 604.933594 73.28125 553.8125 47.558594 C 459.507812 0.113281 307.378906 14.363281 242.359375 104.855469 C 223.296875 131.34375 210.59375 161.492188 205.933594 193.847656 C 201.949219 221.546875 234.007812 239.421875 256.921875 247.664062 C 354.988281 283.015625 444.457031 109.695312 471.824219 43.210938 C 467.164062 42.574219 462.472656 41.941406 457.824219 41.320312 C 460.347656 112.71875 504.433594 164.441406 566.027344 196.339844 C 581.917969 204.585938 655.71875 238.726562 668.523438 210.261719 C 672.257812 201.960938 659.96875 194.703125 656.21875 203.082031 " fill-opacity="1" fill-rule="nonzero"/><path fill="#231f20" d="M 381.515625 233.316406 C 379.246094 230.410156 376 227.871094 372.148438 227.933594 C 365.496094 228.035156 363.84375 234.730469 365.273438 239.996094 C 367.679688 248.84375 381.429688 245.085938 379.023438 236.207031 C 378.402344 237.503906 377.785156 238.800781 377.179688 240.085938 C 375.511719 240.792969 373.816406 241.484375 372.148438 242.179688 C 369.40625 240.808594 368.753906 240.734375 370.199219 241.898438 L 371.457031 243.386719 C 373.816406 246.46875 379.023438 245.878906 381.515625 243.386719 C 384.527344 240.378906 383.894531 236.382812 381.515625 233.316406 " fill-opacity="1" fill-rule="nonzero"/><path fill="#231f20" d="M 483.804688 239.347656 C 481.753906 237.652344 481.328125 234.714844 478.761719 233.269531 C 474.496094 230.882812 470.363281 232.460938 466.660156 235.039062 C 463.046875 237.53125 461.925781 242.8125 464.140625 246.675781 C 466.394531 250.601562 470.363281 251 474.4375 251.25 C 478.433594 251.484375 481.429688 247.8125 481.578125 244.125 C 481.726562 240.085938 481.238281 235.644531 477.253906 233.507812 C 475.203125 232.402344 473.140625 232.339844 470.941406 232.886719 C 469.980469 233.109375 469.066406 233.640625 468.152344 234.039062 C 469.375 233.507812 467.121094 233.949219 468.046875 233.933594 C 458.886719 234.082031 458.855469 248.328125 468.046875 248.179688 C 469.496094 248.152344 470.941406 247.960938 472.34375 247.578125 L 474.730469 246.601562 C 476.355469 245.910156 473.964844 246.78125 473.667969 246.78125 C 472.476562 246.457031 471.25 246.132812 470.070312 245.808594 C 466.277344 243.773438 467.503906 239.214844 467.324219 244.125 C 469.699219 241.75 472.078125 239.375 474.4375 237.003906 C 470.144531 236.738281 477.210938 244.082031 477.386719 241.175781 C 476.191406 243.226562 475.027344 245.277344 473.863281 247.324219 L 475.175781 246.425781 C 476.753906 245.585938 476.605469 245.554688 474.730469 246.308594 C 473.539062 245.984375 472.34375 245.660156 471.132812 245.335938 C 469.671875 243.625 469.304688 243.34375 469.980469 244.523438 L 470.691406 245.894531 C 471.457031 247.253906 472.546875 248.445312 473.730469 249.421875 C 480.738281 255.246094 490.886719 245.230469 483.804688 239.347656 " fill-opacity="1" fill-rule="nonzero"/><path fill="#231f20" d="M 592.617188 310.40625 C 546.730469 360.753906 492.082031 395.546875 421.972656 390.902344 C 361.480469 386.902344 309.269531 344.753906 272.648438 299.742188 C 266.863281 292.601562 256.847656 302.75 262.570312 309.8125 C 299.542969 355.238281 350.769531 395.707031 410.65625 403.65625 C 488.410156 413.96875 551.671875 376.460938 602.707031 320.476562 C 608.890625 313.707031 598.828125 303.605469 592.617188 310.40625 " fill-opacity="1" fill-rule="nonzero"/><path fill="#231f20" d="M 241.429688 377.496094 L 241.84375 372.761719 C 241.84375 372.761719 239.746094 372.570312 235.957031 372.15625 C 222.617188 370.710938 188.699219 366.476562 154.542969 358.027344 C 137.472656 353.808594 120.359375 348.527344 105.8125 342.097656 C 91.25 335.699219 79.328125 328.058594 72.601562 319.710938 L 68.898438 322.703125 L 71.230469 326.847656 C 108.335938 306.082031 139.082031 290.820312 163.765625 269.640625 C 188.464844 248.492188 206.699219 221.296875 218.175781 178.113281 L 208.984375 175.695312 C 208.925781 175.929688 198.953125 214.347656 198.9375 260.421875 C 198.996094 301.511719 206.773438 349.089844 238.050781 380.828125 L 241.429688 377.496094 L 241.84375 372.761719 L 241.429688 377.496094 L 244.808594 374.148438 C 216.378906 345.535156 208.410156 300.417969 208.441406 260.421875 C 208.441406 238.0625 210.890625 217.417969 213.324219 202.386719 C 214.546875 194.882812 215.773438 188.773438 216.6875 184.558594 C 217.128906 182.449219 217.511719 180.824219 217.765625 179.71875 C 218.042969 178.613281 218.191406 178.082031 218.191406 178.082031 L 209 175.664062 C 197.800781 217.460938 180.925781 242.339844 157.570312 262.441406 C 134.214844 282.53125 103.953125 297.691406 66.582031 318.558594 L 61.667969 321.316406 L 65.222656 325.699219 C 74.785156 337.394531 90.496094 346.285156 108.660156 353.601562 C 163.085938 375.355469 240.796875 382.167969 241.015625 382.214844 L 253.925781 383.363281 L 244.808594 374.148438 L 241.429688 377.496094 " fill-opacity="1" fill-rule="nonzero"/><path fill="#231f20" d="M 241.429688 370.371094 C 189.230469 365.535156 111.359375 358.175781 73.945312 317.675781 C 73.472656 321.390625 72.984375 325.125 72.511719 328.855469 C 141.382812 290.597656 197.375 258.402344 220.464844 178.777344 C 215.875 177.523438 211.300781 176.253906 206.714844 175 C 189.730469 242.238281 187.296875 328.132812 236.414062 382.523438 C 242.566406 389.351562 252.613281 379.25 246.476562 372.449219 C 201.210938 322.304688 204.839844 240.644531 220.464844 178.777344 C 222.722656 169.867188 209.28125 166.179688 206.714844 175 C 184.714844 250.835938 130.15625 280.539062 65.3125 316.554688 C 61.167969 318.855469 60.84375 324.445312 63.882812 327.734375 C 104.617188 371.847656 184.832031 379.367188 241.429688 384.601562 C 250.578125 385.457031 250.503906 371.210938 241.429688 370.371094 " fill-opacity="1" fill-rule="nonzero"/><path fill="#231f20" d="M 669.703125 209.804688 L 674.457031 209.953125 L 669.851562 209.804688 L 673.171875 212.992188 C 674.261719 211.855469 674.441406 210.589844 674.457031 209.953125 L 669.851562 209.804688 L 673.171875 212.992188 L 669.835938 209.792969 L 669.835938 214.421875 C 670.589844 214.453125 672.078125 214.140625 673.171875 212.992188 L 669.835938 209.792969 L 669.835938 214.421875 L 669.835938 210.234375 L 668.082031 214.054688 C 668.316406 214.140625 668.671875 214.378906 669.835938 214.421875 L 669.835938 210.234375 L 668.082031 214.054688 L 668.9375 212.164062 L 667.816406 213.921875 L 668.082031 214.054688 L 668.9375 212.164062 L 667.816406 213.921875 C 667.875 213.949219 668.628906 214.527344 669.570312 215.367188 C 673.230469 218.582031 680.695312 225.898438 690.269531 235.171875 C 704.640625 249.125 723.96875 267.648438 743.652344 284.550781 C 763.375 301.46875 783.324219 316.730469 799.730469 324.371094 L 801.738281 320.066406 L 797.679688 317.585938 C 784.445312 339.222656 769.75 352.804688 754.039062 361.109375 C 738.324219 369.398438 721.476562 372.480469 703.800781 372.480469 C 679.117188 372.496094 652.957031 366.390625 627.273438 360.414062 L 626.195312 365.046875 L 629.765625 368.171875 C 630.371094 367.507812 670.855469 320.757812 674.457031 209.953125 L 669.703125 209.804688 L 664.96875 209.644531 C 663.199219 263.933594 652.441406 302.160156 642.21875 326.730469 C 637.113281 339.015625 632.125 347.910156 628.480469 353.660156 C 626.636719 356.550781 625.148438 358.660156 624.113281 360.019531 L 622.949219 361.507812 L 622.667969 361.847656 L 622.625 361.921875 L 617.402344 367.878906 L 625.117188 369.664062 C 650.804688 375.621094 677.566406 381.964844 703.800781 381.976562 C 722.550781 381.976562 741.113281 378.6875 758.464844 369.5 C 775.84375 360.34375 791.867188 345.328125 805.792969 322.542969 L 808.554688 317.984375 L 803.726562 315.757812 C 782.011719 305.773438 749.832031 278.28125 723.203125 253.445312 C 709.851562 241.027344 697.796875 229.246094 688.824219 220.542969 C 684.339844 216.191406 680.621094 212.609375 677.878906 210.058594 C 676.476562 208.773438 675.355469 207.769531 674.394531 206.988281 L 672.964844 205.941406 L 672.035156 205.425781 C 671.609375 205.25 671.121094 204.96875 669.835938 204.925781 C 669.011719 204.894531 667.445312 205.21875 666.324219 206.414062 C 665.191406 207.59375 664.984375 208.921875 664.96875 209.660156 L 664.96875 209.644531 L 669.703125 209.804688 " fill-opacity="1" fill-rule="nonzero"/><path fill="#231f20" d="M 671.609375 216.664062 C 664.496094 217.710938 679.679688 228.199219 683.984375 232.371094 C 696.675781 244.699219 709.453125 256.925781 722.449219 268.917969 C 745.480469 290.109375 769.972656 312.054688 798.121094 326.214844 C 797.28125 322.96875 796.425781 319.710938 795.585938 316.464844 C 753.625 380.148438 693.78125 373.378906 628.082031 358.175781 C 629.117188 362.140625 630.179688 366.109375 631.210938 370.074219 C 667.003906 327.96875 674.394531 262.324219 676.832031 209.804688 C 677.257812 200.617188 663.019531 200.664062 662.59375 209.804688 C 660.363281 257.636719 654.09375 321.246094 621.132812 360.019531 C 617.875 363.851562 618.699219 370.621094 624.308594 371.917969 C 697.292969 388.804688 762.402344 392.671875 807.875 323.664062 C 809.925781 320.566406 808.65625 315.597656 805.335938 313.914062 C 768.6875 295.492188 738.308594 264.730469 708.90625 236.664062 C 700.746094 228.875 681.316406 200.941406 667.816406 202.933594 C 658.773438 204.277344 662.621094 217.992188 671.609375 216.664062 " fill-opacity="1" fill-rule="nonzero"/><path fill="#231f20" d="M 412.664062 464.496094 C 397.613281 464.449219 377.636719 518.796875 372.191406 528.828125 C 340.78125 586.550781 309.828125 644.542969 278.683594 702.398438 C 218.695312 813.792969 144.628906 920.011719 98.097656 1038.113281 C 96.503906 1042.140625 100.617188 1047.628906 104.957031 1047.125 C 193.9375 1036.890625 292.136719 1054.277344 381.046875 1059.839844 C 480.484375 1066.078125 581.152344 1077.09375 680.875 1076.046875 C 686.6875 1075.988281 689.195312 1070.148438 687.011719 1065.324219 C 646.4375 975.40625 601.644531 887.121094 552.75 801.417969 C 525.324219 753.339844 494.074219 708.875 472.8125 657.386719 C 448.011719 597.347656 434.792969 532.632812 419.539062 469.730469 C 417.371094 460.808594 403.632812 464.582031 405.789062 473.503906 C 419.90625 531.628906 433.4375 589.78125 453.367188 646.238281 C 471.339844 697.089844 500.078125 740.996094 527.699219 786.832031 C 582.847656 878.375 630.785156 975.167969 674.734375 1072.523438 C 676.785156 1068.953125 678.820312 1065.382812 680.875 1061.816406 C 496.316406 1063.746094 311.863281 1035.003906 127.324219 1032.246094 C 122.21875 1032.171875 117.113281 1032.214844 112.007812 1032.363281 C 106.59375 1032.496094 113.320312 1037.347656 121.449219 1018.941406 C 135.644531 986.789062 152.523438 955.761719 169.238281 924.890625 C 200.546875 867.078125 233.992188 810.429688 267.160156 753.679688 C 299.574219 698.210938 328.257812 640.207031 358.738281 583.644531 C 371.574219 559.796875 384.46875 535.964844 397.464844 512.191406 C 401.832031 504.242188 406.230469 496.304688 410.6875 488.386719 C 415.980469 478.976562 420.410156 478.769531 412.664062 478.742188 C 421.855469 478.769531 421.855469 464.523438 412.664062 464.496094 " fill-opacity="1" fill-rule="nonzero"/><path fill="#231f20" d="M 304.355469 674.054688 C 223.992188 592.65625 123.398438 537.246094 34.34375 466.53125 C 27.246094 460.882812 17.097656 470.894531 24.265625 476.601562 C 113.261719 547.277344 213.972656 602.789062 294.292969 684.113281 C 300.738281 690.675781 310.816406 680.585938 304.355469 674.054688 " fill-opacity="1" fill-rule="nonzero"/><path fill="#231f20" d="M 175.199219 467.398438 C 114.855469 473.992188 68.394531 533.367188 34.640625 578.558594 C 29.136719 585.917969 41.5 593.011719 46.945312 585.742188 C 77.058594 545.417969 121.289062 487.53125 175.199219 481.648438 C 184.230469 480.660156 184.332031 466.398438 175.199219 467.398438 " fill-opacity="1" fill-rule="nonzero"/></svg>