<svg xmlns="http://www.w3.org/2000/svg" xmlns:xlink="http://www.w3.org/1999/xlink" width="1080" zoomAndPan="magnify" viewBox="0 0 810 1439.999935" height="1920" preserveAspectRatio="xMidYMid meet" version="1.0"><defs><clipPath id="34c09d712f"><path d="M 243 610.132812 L 567 610.132812 L 567 829 L 243 829 Z M 243 610.132812 " clip-rule="nonzero"/></clipPath></defs><g clip-path="url(#34c09d712f)"><path fill="#d6b85a" d="M 538.683594 795.046875 C 547.875 797.390625 557.140625 795.90625 566.460938 791.871094 C 556.699219 786.089844 550.945312 776.820312 547.742188 765.289062 C 552.558594 768.984375 558.3125 770.988281 565.421875 770.574219 C 558.054688 760.289062 561.253906 746.359375 558.914062 736.023438 C 556.59375 725.660156 545.636719 721.832031 545.636719 721.832031 L 558.625 718.214844 C 549.148438 702.539062 535.480469 692.175781 517.726562 686.96875 L 527.515625 676.242188 C 514.160156 671.996094 501.246094 670.410156 489.039062 673.222656 C 488.804688 661.871094 485.863281 650.804688 480.210938 640.023438 C 471.984375 637.316406 463.34375 637.863281 454.464844 640.023438 L 452.511719 634.269531 L 444.050781 636.976562 C 444.703125 633.542969 444.128906 629.84375 442.695312 625.964844 C 434.625 626.460938 427.546875 628.671875 421.425781 632.550781 C 417.757812 621.851562 410.648438 614.507812 400.445312 610.132812 C 397.371094 621.566406 390.601562 630.027344 380.503906 635.78125 L 377.195312 627.789062 L 369.359375 632.550781 L 367.382812 623.855469 C 353.140625 630.15625 342.414062 641.273438 335.074219 657.078125 C 333.796875 651.375 329.8125 646.871094 324.214844 643.097656 C 324.660156 653.015625 322.550781 662.339844 317.265625 670.957031 C 302.972656 671.972656 290.683594 678.636719 279.699219 688.921875 L 293.132812 691.03125 C 293.132812 691.03125 282.847656 697.773438 277.511719 707.40625 C 272.199219 717.066406 271.964844 730.605469 262.023438 739.042969 L 274.101562 737.375 C 259.601562 749.484375 249.394531 763.671875 243.589844 780.023438 L 259.757812 780.023438 C 251.53125 787.496094 248.066406 797.675781 249.210938 810.433594 C 254.964844 804.34375 261.65625 801.113281 269.570312 801.84375 C 276.679688 813.402344 289.980469 818.585938 307.449219 819.496094 L 307.449219 808.011719 C 332.574219 823.558594 361.730469 829.910156 395.160156 826.578125 C 392.503906 822.957031 391.566406 819.105469 392.582031 814.964844 C 403.90625 823.0625 418.328125 827.203125 435.304688 828.089844 L 433.792969 819.78125 C 447.980469 825.199219 463.914062 826.605469 481.644531 824.027344 L 476.671875 814.652344 C 489.949219 815.355469 500.023438 820.015625 506.84375 828.6875 C 513.066406 824.339844 515.175781 818.84375 512.128906 811.945312 C 525.640625 815.980469 540.324219 816.789062 556.648438 813.011719 C 546.625 809.261719 540.402344 803.40625 538.683594 795.046875 Z M 538.683594 795.046875 " fill-opacity="1" fill-rule="nonzero"/></g><path fill="#b29576" d="M 492.316406 691.160156 C 506.195312 703.789062 499.816406 722.953125 499.816406 722.953125 C 488.203125 703.710938 469.355469 690.769531 442.226562 685.121094 C 442.230469 685.121094 471.671875 672.441406 492.316406 691.160156 Z M 492.316406 691.160156 " fill-opacity="1" fill-rule="nonzero"/><path fill="#b29576" d="M 467.273438 716.652344 C 499.085938 731.910156 495.832031 757.972656 495.832031 757.972656 C 495.832031 757.972656 482.320312 735.632812 460.632812 727.664062 C 438.949219 719.695312 395.679688 720.6875 395.679688 720.6875 C 395.679688 720.6875 435.460938 701.394531 467.273438 716.652344 Z M 467.273438 716.652344 " fill-opacity="1" fill-rule="nonzero"/><path fill="#b29576" d="M 417.859375 698.164062 C 416.921875 697.929688 400.289062 693.582031 385.214844 694.441406 C 369.671875 695.328125 351.316406 701.941406 351.316406 701.941406 C 351.316406 701.941406 363.683594 686.605469 383.703125 685.277344 C 402.996094 684 416.898438 697.203125 417.859375 698.164062 Z M 417.859375 698.164062 " fill-opacity="1" fill-rule="nonzero"/><path fill="#b29576" d="M 391.046875 751.382812 C 456.339844 751.382812 482.371094 788.042969 483.152344 789.1875 C 482.035156 788.382812 452.09375 767.34375 391.046875 767.34375 C 328.773438 767.34375 302.609375 784.816406 302.609375 784.816406 C 302.609375 784.816406 324.683594 751.382812 391.046875 751.382812 Z M 391.046875 751.382812 " fill-opacity="1" fill-rule="nonzero"/><path fill="#b29576" d="M 372.585938 733.886719 C 372.585938 733.886719 345.121094 729.980469 328.875 734.953125 C 312.65625 739.953125 298.363281 755.445312 298.363281 755.445312 C 298.363281 755.445312 305.578125 731.363281 326.378906 724.617188 C 347.179688 717.847656 372.585938 733.886719 372.585938 733.886719 Z M 372.585938 733.886719 " fill-opacity="1" fill-rule="nonzero"/><path fill="#c4a857" d="M 309.660156 760.765625 C 309.203125 759.40625 307.730469 758.664062 306.363281 759.121094 C 292.390625 763.789062 282.589844 772.066406 277.230469 783.726562 C 276.628906 785.035156 277.199219 786.582031 278.507812 787.179688 C 278.859375 787.34375 279.226562 787.417969 279.59375 787.417969 C 280.578125 787.417969 281.519531 786.855469 281.957031 785.902344 C 286.761719 775.457031 295.28125 768.3125 308.011719 764.058594 C 309.378906 763.605469 310.113281 762.128906 309.660156 760.765625 Z M 309.660156 760.765625 " fill-opacity="1" fill-rule="nonzero"/><path fill="#c4a857" d="M 352.550781 791.910156 C 336.621094 789.113281 320.085938 790.144531 303.417969 794.996094 C 302.039062 795.398438 301.246094 796.84375 301.644531 798.222656 C 301.976562 799.363281 303.015625 800.101562 304.144531 800.101562 C 304.382812 800.101562 304.628906 800.066406 304.871094 799.996094 C 320.765625 795.378906 336.503906 794.375 351.648438 797.042969 C 353.058594 797.273438 354.414062 796.339844 354.664062 794.925781 C 354.910156 793.507812 353.964844 792.15625 352.550781 791.910156 Z M 352.550781 791.910156 " fill-opacity="1" fill-rule="nonzero"/><path fill="#c4a857" d="M 299.042969 724.570312 C 299.667969 724.566406 300.296875 724.34375 300.800781 723.886719 C 310.03125 715.453125 322.246094 711.179688 337.121094 711.179688 C 337.339844 711.179688 337.5625 711.171875 337.78125 711.183594 C 339.210938 711.183594 340.371094 710.03125 340.382812 708.601562 C 340.398438 707.164062 339.242188 705.984375 337.800781 705.976562 C 321.191406 705.871094 307.652344 710.578125 297.285156 720.039062 C 296.226562 721.011719 296.148438 722.65625 297.121094 723.71875 C 297.632812 724.28125 298.339844 724.570312 299.042969 724.570312 Z M 299.042969 724.570312 " fill-opacity="1" fill-rule="nonzero"/><path fill="#c4a857" d="M 395.199219 670.195312 C 373.871094 665.039062 353.878906 667.222656 335.769531 676.695312 C 334.496094 677.359375 334.003906 678.933594 334.667969 680.210938 C 335.132812 681.097656 336.039062 681.609375 336.976562 681.609375 C 337.382812 681.609375 337.796875 681.511719 338.183594 681.3125 C 355.140625 672.445312 373.90625 670.40625 393.976562 675.261719 C 395.371094 675.601562 396.78125 674.738281 397.121094 673.339844 C 397.457031 671.941406 396.597656 670.535156 395.199219 670.195312 Z M 395.199219 670.195312 " fill-opacity="1" fill-rule="nonzero"/><path fill="#c4a857" d="M 392.933594 657.214844 C 405.285156 660.199219 415.609375 666.167969 423.621094 674.949219 C 424.132812 675.511719 424.835938 675.800781 425.539062 675.800781 C 426.167969 675.800781 426.796875 675.574219 427.296875 675.121094 C 428.359375 674.152344 428.4375 672.503906 427.464844 671.441406 C 418.742188 661.878906 407.535156 655.390625 394.15625 652.152344 C 392.761719 651.820312 391.351562 652.671875 391.015625 654.070312 C 390.675781 655.46875 391.535156 656.875 392.933594 657.214844 Z M 392.933594 657.214844 " fill-opacity="1" fill-rule="nonzero"/><path fill="#c4a857" d="M 519.019531 709.453125 C 518.28125 708.21875 516.6875 707.820312 515.449219 708.5625 C 514.214844 709.300781 513.816406 710.898438 514.554688 712.132812 C 521.074219 723 524.082031 735.390625 523.507812 748.960938 C 523.445312 750.398438 524.5625 751.609375 525.996094 751.671875 C 526.035156 751.671875 526.070312 751.671875 526.109375 751.671875 C 527.496094 751.671875 528.652344 750.578125 528.707031 749.179688 C 529.332031 734.574219 526.070312 721.210938 519.019531 709.453125 Z M 519.019531 709.453125 " fill-opacity="1" fill-rule="nonzero"/><path fill="#c4a857" d="M 502.113281 731.789062 C 501.058594 732.761719 500.984375 734.410156 501.957031 735.46875 C 507.898438 741.925781 511.222656 749.691406 512.113281 759.207031 C 512.238281 760.554688 513.371094 761.5625 514.703125 761.5625 C 514.78125 761.5625 514.867188 761.5625 514.949219 761.554688 C 516.382812 761.417969 517.429688 760.148438 517.296875 758.714844 C 516.292969 748.027344 512.53125 739.269531 505.789062 731.941406 C 504.820312 730.882812 503.167969 730.820312 502.113281 731.789062 Z M 502.113281 731.789062 " fill-opacity="1" fill-rule="nonzero"/><path fill="#c4a857" d="M 489.527344 765.203125 C 488.347656 764.386719 486.71875 764.679688 485.90625 765.867188 C 485.089844 767.046875 485.386719 768.667969 486.566406 769.488281 C 492.472656 773.570312 496.652344 778.871094 498.984375 785.246094 C 499.371094 786.300781 500.371094 786.953125 501.429688 786.953125 C 501.726562 786.953125 502.027344 786.902344 502.324219 786.792969 C 503.675781 786.300781 504.367188 784.800781 503.875 783.453125 C 501.164062 776.050781 496.335938 769.910156 489.527344 765.203125 Z M 489.527344 765.203125 " fill-opacity="1" fill-rule="nonzero"/><path fill="#c4a857" d="M 462.734375 791.566406 C 447.449219 789.15625 432.792969 789.535156 419.148438 792.695312 C 417.75 793.019531 416.875 794.417969 417.199219 795.816406 C 417.476562 797.019531 418.550781 797.832031 419.734375 797.832031 C 419.929688 797.832031 420.125 797.8125 420.324219 797.769531 C 433.316406 794.753906 447.308594 794.402344 461.921875 796.707031 C 463.378906 796.945312 464.679688 795.964844 464.902344 794.542969 C 465.121094 793.125 464.152344 791.789062 462.734375 791.566406 Z M 462.734375 791.566406 " fill-opacity="1" fill-rule="nonzero"/><path fill="#c4a857" d="M 406.671875 734.257812 C 405.234375 734.339844 404.140625 735.574219 404.226562 737.007812 C 404.3125 738.445312 405.542969 739.539062 406.980469 739.453125 C 431.484375 738.015625 452.71875 743.574219 470.140625 755.980469 C 470.597656 756.304688 471.125 756.464844 471.648438 756.464844 C 472.460938 756.464844 473.261719 756.082031 473.769531 755.371094 C 474.601562 754.199219 474.332031 752.574219 473.160156 751.738281 C 454.75 738.628906 432.386719 732.75 406.671875 734.257812 Z M 406.671875 734.257812 " fill-opacity="1" fill-rule="nonzero"/></svg>